<svg xmlns="http://www.w3.org/2000/svg" viewBox="0 0 676.73 676.73"><defs><style>.cls-1{fill:#fff;}</style></defs><g id="Layer_2" data-name="Layer 2"><g id="Layer_1-2" data-name="Layer 1"><path class="cls-1" d="M502.75,42.69C339.45-48.1,133.47,10.68,42.68,174c-58.37,105-54.9,227.61-1.6,325.93a337.55,337.55,0,0,0,34.56,51.7,102.26,102.26,0,0,1,6.8-44.06c.66-1.73,1.37-3.42,2.11-5.08A134.71,134.71,0,0,1,96.3,480.72c26.24-39.85,74.43-74.17,112.64-94.66,45.21-25.38,76.55-31.58,46.71-35.15-57.79-4.33-186.86-26.63-86.58-63.84,50.47-15.42,73.79.56,91.88,14.09,18,14,30.74,25.65,57.78,13.67,54.45-22.68-2.25,23.68,9.43,33.55,5.53,4.84,30.94-7.15,57.23-20.55,26.08-13.87,53.05-29.15,57-41.3,7.27-23.95,7.31-42.17,53.61-32.93,24.24,5.07,51.86,20.18,66.92,22.56-11.78,11.09-55.85.95-82.44,4.9C452,284.91,445,302.7,445.13,302.54c22.08-21.86,30.05-14.19,86.49-12.64,31.87,1.8,40.89-8.56,43.27-19.1a18.35,18.35,0,0,0,.6-6.5,31.5,31.5,0,0,0-1.44-8.88,77.27,77.27,0,0,0-24-39.53,246.4,246.4,0,0,0-83.39-48.57c-40.33-14-94.11-21.12-154.54-5.62-24.18-8.92-98.81-26.26-171.6-5.79A219.7,219.7,0,0,0,110,167c-41.81,19.68-25.33,24.07-.67,31.53l1.11.34c25.57,7.35,58.78,18.16,54.46,44a380.52,380.52,0,0,0-54.46,60.23c-13.11,18-41.59,5.18-36.68-16.54a294.89,294.89,0,0,1,27-72.95,140.69,140.69,0,0,1-16.17-5.66c-10.67-4.78-16.4-11.74-17.06-20.69-1.24-16.93,16.74-26.85,35.26-35.57l.26-.12A235.72,235.72,0,0,1,136,139.63l28.77-8.09C255.93,49.72,392.47,30.4,505.58,93.29c142.61,79.29,194,259.17,114.66,401.79a295.37,295.37,0,0,1-50.43,66.55c-91,90.07-233.83,113.46-351.36,48.11A294,294,0,0,1,112.31,509.47c-.63,1.31-1.22,2.61-1.76,3.89l-.14.34-.14.32c-.52,1.16-1,2.39-1.53,3.68a74.72,74.72,0,0,0-5,32l2.39,34.76A338.67,338.67,0,0,0,174,634.05c136.93,76.12,303.84,47.07,407.71-60.55A339.07,339.07,0,0,0,634,502.75C724.83,339.45,666.05,133.47,502.75,42.69Zm-9,182.31c5.84,3.76,2.14,12.26-5.27,12.57-23.08.71-57.22,1.7-53.86-18.78C438.62,197.26,474,211.89,493.74,225Zm-282.2.25c69.45-48.43,128.69-59,166.74-59.77,37.27-.41,54.85,8.24,56.42,8.64-51.93-5.94-69.11,11.08-78.75,24.79-9.88,14.17-12.19,25-40,17-28.65-10.44-88.82,16.29-124.18,34.45C156.22,268.22,145.47,277.5,211.54,225.25Z"/><path class="cls-1" d="M305.58,564.15c-19.49-9.88-40.33-12.51-56.72-7.28a48,48,0,0,0-20.93,13c12.22-3.69,27.53-1.08,40.59,5.58,20.24,10.09,36.61,28,53.92,44.61,4,3.77,8.54,7.81,12.9,7.48,5.66-.36,8.43-8.88,7.37-17.42C340.35,589.41,322.35,572.12,305.58,564.15Z"/><path class="cls-1" d="M322.7,398.09c-35.92-10.12-76.7,8-101.23,30.36-29.5,25.59-47.94,58.31-50.36,89a85.65,85.65,0,0,0,7.45,43.45c2.14-22.72,16.81-46.3,36.65-63.42,30.36-26.67,71.08-41.66,110.27-59.1,8.94-4.08,18.68-8.85,21.08-16.28C349.78,412.44,337.56,402.09,322.7,398.09Zm6.73,20.69c-1.53,4.33-6.89,5.79-11.48,6-12.62.67-25-3-37.32-5.84a100.6,100.6,0,0,0-22.19-3,89.16,89.16,0,0,1,41.95-13.8c8.66-.56,18,.4,24.72,5.91C328.28,410.69,330.8,414.92,329.43,418.78Z"/><path class="cls-1" d="M369.37,546.55c6.07-4.67,2.77-16.3-4.86-25.07-18.25-21.47-51.44-27.29-76.23-23.6-29.27,3.61-54.61,16.35-69,34.55a64.67,64.67,0,0,0-13.63,30.36c10.91-13.34,30-21.93,49.68-24.31,30.26-3.93,62.09,3.82,94,9.4C356.63,549.08,364.74,550.2,369.37,546.55ZM314.8,510.66a68.47,68.47,0,0,1,33,7.65c5.92,3.09,11.67,7.44,13.89,13.74,1,3,1,6.74-1.43,8.74-2.73,2.23-6.83,1.05-9.94-.61-8.56-4.59-15.22-11.95-22.19-18.71A77.29,77.29,0,0,0,314.8,510.66Z"/></g></g></svg>